<?xml version="1.0" encoding="UTF-8" standalone="no"?>
<!DOCTYPE svg PUBLIC "-//W3C//DTD SVG 1.1//EN" "http://www.w3.org/Graphics/SVG/1.1/DTD/svg11.dtd">
<svg width="100%" height="100%" viewBox="0 0 247 245" version="1.1" xmlns="http://www.w3.org/2000/svg" xmlns:xlink="http://www.w3.org/1999/xlink" xml:space="preserve" xmlns:serif="http://www.serif.com/" style="fill-rule:evenodd;clip-rule:evenodd;">
    <g transform="matrix(1,0,0,1,-35702,-383)">
        <g id="Page-13" serif:id="Page 13" transform="matrix(1.33333,0,0,1.33333,34560,0)">
            <rect x="0" y="0" width="1920" height="1080" style="fill:none;"/>
            <g transform="matrix(1,0,0,1,769.298,558.708)">
                <rect x="0" y="-359.483" width="980.102" height="359.781" style="fill:none;fill-rule:nonzero;stroke:rgb(0,5,72);stroke-width:0.6px;"/>
            </g>
            <g transform="matrix(0,-1,-1,0,949.561,290.53)">
                <path d="M-88.753,-88.753C-137.769,-88.753 -177.504,-49.017 -177.504,0.002C-177.504,49.016 -137.769,88.753 -88.753,88.753C-39.737,88.753 -0.001,49.016 -0.001,0.002C-0.001,-49.017 -39.737,-88.753 -88.753,-88.753" style="fill:white;fill-rule:nonzero;"/>
            </g>
            <g transform="matrix(1,0,0,1,949.563,313.915)">
                <path d="M0,130.734C-36.043,130.734 -65.367,101.41 -65.367,65.364C-65.367,29.324 -36.043,0 0,0C36.04,0 65.367,29.324 65.367,65.364C65.367,101.41 36.04,130.734 0,130.734M133.846,98.132L133.846,83.778C136.534,85.656 138.528,86.841 140.291,87.727C142.031,88.593 143.803,88.956 145.551,88.956C151.737,88.956 155.029,85.622 155.029,79.369L155.029,30.458L171.372,30.458L171.372,80.074C171.372,87.806 169.285,93.374 165.116,96.767C160.947,100.166 155.802,101.864 149.687,101.864C144.44,101.864 139.157,100.617 133.846,98.132M181.208,65.446C181.208,40.398 192.576,29.03 211.587,29.03C232.613,29.03 242.471,41.002 242.471,65.446C242.471,91.602 230.906,101.864 211.99,101.864C191.975,101.864 181.208,90.395 181.208,65.446M225.482,65.446C225.482,48.973 221.059,42.178 211.584,42.178C202.626,42.178 198.096,49.28 198.096,65.446C198.096,81.617 203.142,88.717 212.202,88.717C221.059,88.717 225.482,82.023 225.482,65.446M252.349,30.427L268.546,30.427L268.546,58.778L290.271,58.778L290.271,30.427L306.572,30.427L306.572,100.471L290.271,100.471L290.271,72.639L268.546,72.639L268.546,100.471L252.349,100.471L252.349,30.427ZM374.373,100.465L352.741,30.427L335.543,30.427L313.279,100.465L328.144,100.465L332.057,86.909L354.205,86.909L358.177,100.465L374.373,100.465ZM350.541,74.407L335.667,74.407L343.044,48.829L350.541,74.407ZM502.081,30.427L502.081,100.471L488.719,100.471L464.162,57.836L464.162,100.471L447.96,100.471L447.96,30.427L463.006,30.427L485.887,72.117L485.887,30.427L502.081,30.427ZM435.207,30.427L435.207,100.471L421.851,100.471L397.289,57.836L397.289,100.471L381.086,100.471L381.086,30.427L396.132,30.427L419.011,72.117L419.011,30.427L435.207,30.427ZM514.853,30.427L531.038,30.427L531.038,100.468L514.853,100.468L514.853,30.427ZM557.485,42.722L539.097,42.722L539.097,30.427L592.487,30.427L592.487,42.722L573.783,42.722L573.783,100.465L557.485,100.465L557.485,42.722ZM692.989,72.596C697.302,71.203 700.887,68.938 703.398,65.065C705.917,61.181 707.017,57.13 707.017,52.586C707.017,45.244 704.811,39.721 700.411,36.012C695.999,32.308 689.785,30.43 681.746,30.43L653.688,30.43L653.688,100.465L669.783,100.465L669.783,74.712L676.894,74.712L690.169,100.471L709.539,100.471L692.989,72.596ZM680.787,62.016L669.783,62.016L669.783,42.731L681.515,42.734C683.946,42.734 686.569,43.365 688.237,45.03C689.774,46.561 690.544,49.201 690.544,52.135C690.544,58.456 687.291,62.016 680.787,62.016M600.346,100.471L641.545,100.471L641.545,88.155L616.54,88.155L616.54,71.598L637.452,71.598L637.452,59.187L616.54,59.187L616.54,42.728L641.545,42.728L641.545,30.427L600.346,30.427L600.346,100.471Z" style="fill:rgb(235,0,60);fill-rule:nonzero;"/>
            </g>
            <g transform="matrix(1,0,0,1,949.56,379.283)">
                <path d="M0,0L-53.816,-20.941L-33.55,0L-53.816,20.944L0,0ZM0,0L53.822,20.944L33.555,0L53.822,-20.941L0,0ZM0,0L-20.941,53.819L0,33.552L20.947,53.819L0,0ZM0,0L20.947,-53.819L0,-33.552L-20.941,-53.819L0,0Z" style="fill:white;fill-rule:nonzero;"/>
            </g>
            <g transform="matrix(1,0,0,1,0,-321.44)">
                <path d="M874.39,699.224L870.596,699.224L870.596,702.222L874.39,702.222L874.39,699.224ZM1024.74,702.222L1028.53,702.222L1028.53,699.224L1024.74,699.224L1024.74,702.222ZM1022.01,742.897L1020.2,741.724L1016.85,746.857L1014.03,745.024L1016.96,740.542L1015.15,739.36L1012.22,743.814L1009.44,741.989L1012.79,736.863L1010.99,735.684L1006.15,743.075L1017.17,750.284L1022.01,742.897ZM1009.08,759.745L1005.25,756.067L1008.86,752.29L1007.3,750.786L1003.68,754.561L1001.12,752.112L1005.28,747.774L1003.74,746.282L997.717,752.566L1007.22,761.683L1009.08,759.745ZM1003.64,764.769L1002.33,763.017L997.531,766.625L990.936,757.844L988.775,759.471L996.682,770.004L1003.64,764.769ZM990.451,773.818L984.206,762.224L981.825,763.505L988.073,775.098L990.451,773.818ZM973.966,780.886L972.212,775.747L977.396,773.984L979.145,779.12L981.687,778.255L977.436,765.793L974.894,766.653L976.669,771.851L971.487,773.617L969.718,768.419L967.171,769.287L971.425,781.749L973.966,780.886ZM963.392,777.414L963.135,775.575L957.175,776.413L957.429,778.249L963.392,777.414ZM954.007,784.759L954.03,782.567L948.03,782.505L948.151,771.524L945.446,771.496L945.302,784.663L954.007,784.759ZM940.344,784.195L940.705,782.034L934.784,781.053L936.581,770.227L933.915,769.781L931.754,782.768L940.344,784.195ZM923.549,774.847L923.684,769.177L920.06,773.53L923.549,774.847ZM926.15,767.383L926.026,781.417L923.419,780.429L923.495,777.022L918.669,775.203L916.489,777.82L914.055,776.895L923.436,766.36L926.15,767.383ZM905.601,772.086L908.326,767.53L912.816,770.216L913.93,768.348L909.437,765.663L911.251,762.631L916.418,765.711L917.524,763.866L910.046,759.398L903.296,770.712L905.601,772.086ZM903.863,754.656L897.886,761.06L899.17,750.279L897.407,748.634L888.423,758.261L890.259,759.971L896.34,753.455L895.108,764.498L896.71,765.993L905.697,756.36L903.863,754.656ZM879.972,748.27C878.9,746.691 878.454,745.249 878.64,743.941C878.824,742.626 879.664,741.464 881.168,740.44L887.875,735.876L889.444,738.178L882.798,742.697C881.865,743.337 881.303,744.003 881.123,744.694C880.942,745.396 881.131,746.149 881.687,746.967C882.214,747.734 882.843,748.18 883.574,748.299C884.304,748.411 885.137,748.155 886.076,747.517L892.719,743.001L894.163,745.117L887.452,749.684C886.451,750.361 885.492,750.741 884.575,750.826C883.661,750.908 882.815,750.724 882.048,750.282C881.275,749.833 880.581,749.162 879.972,748.27M1016.38,664.095L1018.04,663.268L1020.72,668.656L1019.06,669.485L1016.38,664.095ZM1009.64,652.005L1011.39,654.301C1011.82,654.871 1012.28,655.204 1012.78,655.3C1013.29,655.398 1013.83,655.224 1014.42,654.778C1014.94,654.383 1015.26,653.949 1015.35,653.48C1015.43,653.018 1015.28,652.513 1014.87,651.966L1012.98,649.478L1009.64,652.005ZM1017.98,654.186C1017.91,655.229 1017.34,656.154 1016.26,656.975C1015.76,657.359 1015.2,657.618 1014.59,657.759C1013.98,657.9 1013.37,657.889 1012.77,657.731C1012.33,657.61 1011.92,657.359 1011.52,657.049L1009.4,662.992L1007.36,660.304L1009.44,655.164L1007.99,653.26L1004.2,656.132L1002.58,653.997L1013.07,646.037L1016.78,650.93C1017.64,652.064 1018.04,653.148 1017.98,654.186M991.796,644.152L1000.3,634.099L1007.05,639.8L1005.65,641.444L1000.98,637.49L998.823,640.037L1002.89,643.481L1001.49,645.137L997.406,641.681L995.24,644.24L999.923,648.211L998.529,649.856L991.796,644.152ZM982.192,638.251L987.492,628.59L984.008,626.681L985.043,624.799L994.397,629.919L993.359,631.806L989.841,629.88L984.547,639.54L982.192,638.251ZM971.628,633.786L975.983,621.358L978.525,622.255L974.178,634.686L971.628,633.786ZM963.544,627.11L964.796,618.442L967.279,618.797L965.394,631.831L963.225,631.521L957.933,621.747L956.659,630.571L954.173,630.21L956.058,617.178L958.447,617.522L963.544,627.11ZM944.687,625.978L943.754,617.274L946.247,617.006L947.655,630.1L945.477,630.334L937.926,622.173L938.882,631.044L936.389,631.312L934.979,618.219L937.373,617.959L944.687,625.978ZM925.916,628.794L922.35,624.385L922.398,630.046L925.916,628.794ZM927.278,630.489L922.418,632.221L922.443,635.622L919.986,636.497L920.339,622.396L923.072,621.423L932.048,632.212L929.422,633.143L927.278,630.489ZM906.986,644.409L899.852,633.338L902.106,631.879L905.082,636.494L909.68,633.532L906.707,628.92L908.963,627.465L916.097,638.539L913.84,639.989L910.898,635.428L906.3,638.39L909.245,642.953L906.986,644.409ZM897.223,650.716C897.754,650.155 898.092,649.582 898.233,648.995C898.371,648.409 898.292,647.788 897.976,647.131C897.675,646.471 897.122,645.766 896.335,645.013C895.531,644.248 894.795,643.732 894.135,643.467C893.477,643.199 892.854,643.145 892.276,643.312C891.698,643.481 891.142,643.842 890.606,644.406C890.07,644.965 889.734,645.543 889.599,646.132C889.464,646.725 889.545,647.345 889.841,647.991C890.141,648.643 890.693,649.351 891.494,650.112C892.293,650.874 893.023,651.39 893.689,651.655C894.349,651.929 894.97,651.98 895.548,651.811C896.123,651.641 896.682,651.277 897.223,650.716M898.854,652.27C897.948,653.215 896.995,653.856 895.991,654.194C894.981,654.535 893.943,654.538 892.865,654.208C891.796,653.875 890.702,653.17 889.588,652.112C887.954,650.558 887.103,648.993 887.015,647.41C886.936,645.828 887.585,644.313 888.978,642.852C889.875,641.913 890.829,641.267 891.836,640.928C892.843,640.59 893.884,640.584 894.955,640.917C896.03,641.25 897.122,641.949 898.239,643.01C899.866,644.564 900.724,646.127 900.808,647.712C900.893,649.294 900.239,650.812 898.854,652.27M889.232,664.896C888.936,665.378 888.603,665.798 888.228,666.151C887.867,666.504 887.481,666.803 887.077,667.051L884.939,665.739C885.39,665.545 885.799,665.33 886.163,665.107C886.524,664.893 886.809,664.614 887.026,664.264C887.368,663.703 887.492,663.186 887.385,662.713C887.28,662.244 886.908,661.81 886.268,661.418L878.559,656.69L879.966,654.4L887.791,659.198C888.499,659.632 889.023,660.095 889.365,660.586C889.698,661.082 889.901,661.579 889.96,662.078C890.025,662.583 889.985,663.074 889.839,663.556C889.686,664.036 889.489,664.484 889.232,664.896M949.564,634.257C912.853,634.257 883.1,664.013 883.1,700.722C883.1,737.428 912.853,767.186 949.564,767.186C986.27,767.186 1016.03,737.428 1016.03,700.722C1016.03,664.013 986.27,634.257 949.564,634.257M949.564,636.452C984.998,636.452 1013.83,665.285 1013.83,700.722C1013.83,736.158 984.998,764.989 949.564,764.989C914.125,764.989 885.292,736.158 885.292,700.722C885.292,665.285 914.125,636.452 949.564,636.452M949.562,610.848C899.931,610.848 859.691,651.083 859.691,700.716C859.691,750.352 899.931,790.592 949.562,790.592C999.198,790.592 1039.44,750.352 1039.44,700.716C1039.44,651.083 999.198,610.848 949.562,610.848M949.562,613.04C997.909,613.04 1037.24,652.372 1037.24,700.716C1037.24,749.06 997.909,788.392 949.562,788.392C901.215,788.392 861.888,749.06 861.888,700.716C861.888,652.372 901.215,613.04 949.562,613.04" style="fill-rule:nonzero;"/>
            </g>
        </g>
    </g>
</svg>
